<?xml version="1.0" encoding="UTF-8"?>
<svg id="Capa_2" data-name="Capa 2" xmlns="http://www.w3.org/2000/svg" viewBox="0 0 52.85 87.48">
  <g id="Capa_1-2" data-name="Capa 1">
    <path d="M3.12,72.9c3.25,2.08,10.8,5.34,18.74,5.34,14.71,0,19.27-9.37,19.14-16.4-.13-11.85-10.8-16.92-21.87-16.92h-6.38v-8.59h6.38c8.33,0,18.88-4.3,18.88-14.32,0-6.77-4.3-12.76-14.84-12.76-6.77,0-13.28,2.99-16.92,5.6L3.25,6.51C7.68,3.25,16.27,0,25.38,0c16.66,0,24.21,9.89,24.21,20.18,0,8.72-5.21,16.14-15.62,19.92v.26c10.41,2.08,18.88,9.89,18.88,21.74,0,13.54-10.54,25.38-30.85,25.38-9.5,0-17.83-2.99-22-5.73l3.12-8.85Z"/>
  </g>
</svg>