<?xml version="1.0" encoding="UTF-8"?>
<svg id="Capa_2" data-name="Capa 2" xmlns="http://www.w3.org/2000/svg" viewBox="0 0 372.83 88.09">
  <g id="Capa_1-2" data-name="Capa 1">
    <g>
      <path d="M12.09,24.43l12.22,34.98c2.06,5.66,3.73,10.8,5.02,15.95h.39c1.41-5.14,3.21-10.29,5.27-15.95l12.09-34.98h11.83l-24.43,62.24h-10.8L0,24.43h12.09Z"/>
      <path d="M103.52,86.68l-.9-7.84h-.39c-3.47,4.89-10.16,9.26-19.03,9.26-12.6,0-19.03-8.87-19.03-17.88,0-15.05,13.38-23.28,37.42-23.15v-1.29c0-5.14-1.41-14.4-14.15-14.4-5.79,0-11.83,1.8-16.2,4.63l-2.57-7.46c5.14-3.34,12.6-5.53,20.45-5.53,19.03,0,23.66,12.99,23.66,25.46v23.28c0,5.4.26,10.67,1.03,14.92h-10.29ZM101.85,54.91c-12.35-.26-26.36,1.93-26.36,14.02,0,7.33,4.89,10.8,10.67,10.8,8.1,0,13.25-5.14,15.05-10.42.39-1.16.64-2.44.64-3.6v-10.8Z"/>
      <path d="M131.05,41.28c0-6.43-.13-11.7-.51-16.85h9.9l.51,10.03h.39c3.47-5.92,9.26-11.45,19.55-11.45,8.49,0,14.92,5.14,17.62,12.47h.26c1.93-3.47,4.37-6.17,6.94-8.1,3.73-2.83,7.84-4.37,13.76-4.37,8.23,0,20.45,5.4,20.45,27.01v36.65h-11.06v-35.24c0-11.96-4.37-19.16-13.5-19.16-6.43,0-11.45,4.76-13.38,10.29-.51,1.54-.9,3.6-.9,5.66v38.45h-11.06v-37.29c0-9.9-4.37-17.1-12.99-17.1-7.07,0-12.22,5.66-14.02,11.32-.64,1.67-.9,3.6-.9,5.53v37.55h-11.06v-45.4Z"/>
      <path d="M294.63,55.04c0,23.02-15.95,33.05-30.99,33.05-16.85,0-29.84-12.35-29.84-32.02,0-20.83,13.63-33.05,30.86-33.05s29.96,12.99,29.96,32.02ZM245.25,55.68c0,13.63,7.84,23.92,18.9,23.92s18.9-10.16,18.9-24.18c0-10.54-5.27-23.92-18.65-23.92s-19.16,12.35-19.16,24.18Z"/>
      <path d="M307.37,75.1c3.34,2.19,9.26,4.5,14.92,4.5,8.23,0,12.09-4.12,12.09-9.26,0-5.4-3.21-8.36-11.57-11.45-11.19-3.99-16.46-10.16-16.46-17.62,0-10.03,8.1-18.26,21.48-18.26,6.3,0,11.83,1.8,15.3,3.86l-2.83,8.23c-2.44-1.54-6.94-3.6-12.73-3.6-6.69,0-10.42,3.86-10.42,8.49,0,5.14,3.73,7.46,11.83,10.55,10.8,4.12,16.33,9.52,16.33,18.78,0,10.93-8.49,18.65-23.28,18.65-6.82,0-13.12-1.67-17.49-4.24l2.83-8.62Z"/>
      <path d="M357.65,80.12c0-4.63,3.22-7.97,7.59-7.97,4.63,0,7.59,3.34,7.59,7.97s-2.96,7.97-7.59,7.97-7.59-3.47-7.59-7.97ZM360.87,61.73l-1.8-61.73h12.35l-1.8,61.73h-8.74Z"/>
    </g>
  </g>
</svg>