<?xml version="1.0" encoding="UTF-8"?>
<svg id="Capa_2" data-name="Capa 2" xmlns="http://www.w3.org/2000/svg" viewBox="0 0 503.24 46.27">
  <defs>
    <style>
      .cls-1 {
        fill: #febf4b;
      }
    </style>
  </defs>
  <g id="Capa_1-2" data-name="Capa 1">
    <g>
      <path class="cls-1" d="M8.68,43.38H0v-2.89h2.89v-20.25h5.78v20.25h2.89v2.89h-2.89ZM5.78,17.35h-2.89v-5.78h5.78v5.78h-2.89Z"/>
      <path class="cls-1" d="M17.35,34.71h-2.89V0h5.78v2.89h5.78v5.79h5.78v5.78h-5.78v-5.78h-5.78v26.03h-2.89ZM40.49,34.71h-2.89v-14.46h-5.78v-5.78h5.78V0h5.78v34.71h-2.89Z"/>
      <path class="cls-1" d="M52.06,28.92h-5.78v-14.46h5.78v14.46ZM63.63,14.46h-11.57v-5.78h11.57v5.78ZM60.74,34.71h-8.68v-5.78h11.57v5.78h-2.89ZM63.63,28.92v-14.46h5.78v14.46h-5.78Z"/>
      <path class="cls-1" d="M75.2,34.71h-2.89V8.68h17.35v5.78h-11.57v20.25h-2.89ZM92.55,34.71h-2.89V14.46h5.78v20.25h-2.89ZM107.01,14.46h-11.57v-5.78h11.57v5.78ZM109.9,34.71h-2.89V14.46h5.78v20.25h-2.89Z"/>
      <path class="cls-1" d="M135.93,34.71h-20.25V0h5.78v17.35h5.78v5.79h-5.78v5.78h17.35v5.78h-2.89ZM138.83,17.35h-11.57v-5.78h11.57v5.78ZM138.83,28.92v-11.57h5.78v11.57h-5.78Z"/>
      <path class="cls-1" d="M164.85,17.35v-2.89h-8.68v2.89h-2.89v17.35h-5.78V8.68h5.78v2.89h2.89v-2.89h8.68v2.89h2.89v5.78h-2.89Z"/>
      <path class="cls-1" d="M190.88,14.46h-20.25v-5.78h20.25v5.78ZM193.78,34.71h-17.35v-5.78h-5.78v-5.78h5.78v-5.79h14.46v-2.89h5.78v20.25h-2.89ZM187.99,28.92h2.89v-5.78h-14.46v5.78h11.57Z"/>
      <path class="cls-1" d="M234.27,14.46h-20.25v-5.78h20.25v5.78ZM237.16,34.71h-17.35v-5.78h-5.78v-5.78h5.78v-5.79h14.46v-2.89h5.78v20.25h-2.89ZM231.38,28.92h2.89v-5.78h-14.46v5.78h11.57Z"/>
      <path class="cls-1" d="M266.08,28.92h-5.78v-14.46h-2.89v-5.78h2.89V2.89h5.78v5.79h2.89v5.78h-2.89v14.46ZM268.97,34.71h-2.89v-5.78h5.78v5.78h-2.89Z"/>
      <path class="cls-1" d="M280.54,28.92h-5.78V8.68h5.78v20.25ZM295,34.71h-14.46v-5.78h11.57V8.68h5.78v26.03h-2.89Z"/>
      <path class="cls-1" d="M335.49,34.71h-20.25V0h5.78v17.35h5.78v5.79h-5.78v5.78h17.35v5.78h-2.89ZM338.39,17.35h-11.57v-5.78h11.57v5.78ZM338.39,28.92v-11.57h5.78v11.57h-5.78Z"/>
      <path class="cls-1" d="M352.85,28.92h-5.78v-14.46h5.78v14.46ZM364.42,14.46h-11.57v-5.78h11.57v5.78ZM361.52,34.71h-8.68v-5.78h11.57v5.78h-2.89ZM364.42,28.92v-14.46h5.78v14.46h-5.78Z"/>
      <path class="cls-1" d="M390.45,17.35v-2.89h-8.68v2.89h-2.89v17.35h-5.78V8.68h5.78v2.89h2.89v-2.89h8.68v2.89h2.89v5.78h-2.89Z"/>
      <path class="cls-1" d="M413.58,17.35v-2.89h-8.68v2.89h-2.89v17.35h-5.78V8.68h5.78v2.89h2.89v-2.89h8.68v2.89h2.89v5.78h-2.89Z"/>
      <path class="cls-1" d="M425.15,28.92h-5.78v-14.46h5.78v-5.78h17.35v11.57h-5.78v2.89h-11.57v5.78ZM433.83,17.35h2.89v-2.89h-11.57v2.89h8.68ZM439.61,34.71h-14.46v-5.78h11.57v-2.89h5.78v8.68h-2.89Z"/>
      <path class="cls-1" d="M462.75,40.49v-14.46h-11.57v-5.78h-5.78v-5.78h5.78v-5.78h17.35v31.81h-5.78ZM451.18,40.49h-5.78v-5.78h5.78v5.78ZM459.86,20.25h2.89v-5.78h-11.57v5.78h8.68ZM459.86,46.27h-8.68v-5.78h11.57v5.78h-2.89Z"/>
      <path class="cls-1" d="M477.21,28.92h-5.78v-14.46h5.78v14.46ZM488.78,14.46h-11.57v-5.78h11.57v5.78ZM485.89,34.71h-8.68v-5.78h11.57v5.78h-2.89ZM488.78,28.92v-14.46h5.78v14.46h-5.78Z"/>
      <path class="cls-1" d="M500.35,26.03h-2.89V0h5.78v26.03h-2.89ZM500.35,34.71h-2.89v-5.78h5.78v5.78h-2.89Z"/>
    </g>
  </g>
</svg>